# xmcd
#
# Track frame offsets:
#	150
#	17281
#	34844
#	55070
#	75011
#	96426
#	111646
#	128241
#
# Disc length: 1972 seconds
#
# Revision: 0
# Processed by: cddbd v1.5.2PL0 Copyright (c) Steve Scherf et al.
# Submitted via: EasyCDDAExtractor 2010.6.0.0
#
DISCID=5a07b208
DTITLE=Antonio De Jesus - Cosas De Locos
DYEAR=1989
DGENRE=Ballad
TTITLE0=Cosas De Locos
TTITLE1=Video Clips
TTITLE2=Nube Pasajera
TTITLE3=Par De Anillos
TTITLE4=Una Calle, Un Banco, Una Plaza
TTITLE5=Estrellita
TTITLE6=Esta Noche Hay Rock'N Roll
TTITLE7=No Es Nada Facil
EXTD=
EXTT0=
EXTT1=
EXTT2=
EXTT3=
EXTT4=
EXTT5=
EXTT6=
EXTT7=
PLAYORDER=
